<?xml version="1.0" standalone="no"?>
<!DOCTYPE svg PUBLIC "-//W3C//DTD SVG 20010904//EN"
 "http://www.w3.org/TR/2001/REC-SVG-20010904/DTD/svg10.dtd">
<svg version="1.0" xmlns="http://www.w3.org/2000/svg"
 width="3334.000000pt" height="3334.000000pt" viewBox="0 0 3334.000000 3334.000000"
 preserveAspectRatio="xMidYMid meet">
<metadata>
Created by potrace 1.14, written by Peter Selinger 2001-2017
</metadata>
<g transform="translate(0.000000,3334.000000) scale(0.100000,-0.100000)"
fill="#000000" stroke="none">
<path d="M2794 24086 c9 -92 14 -135 32 -281 9 -66 17 -133 19 -150 10 -80 57
-365 80 -485 14 -74 28 -148 31 -165 3 -16 23 -111 45 -210 22 -99 42 -188 44
-198 2 -9 11 -45 20 -80 9 -34 18 -70 20 -80 2 -10 7 -27 10 -37 3 -10 7 -27
9 -37 12 -58 126 -461 178 -623 69 -219 146 -443 246 -715 35 -98 197 -504
222 -560 10 -22 41 -92 68 -155 168 -388 456 -971 658 -1328 35 -63 64 -115
64 -118 0 -2 16 -28 35 -58 19 -30 35 -57 35 -60 0 -10 265 -448 377 -625 112
-176 389 -592 433 -651 15 -19 91 -125 170 -235 79 -110 146 -202 149 -205 4
-3 39 -50 80 -105 91 -123 386 -499 416 -531 5 -6 24 -28 40 -49 17 -21 35
-43 40 -49 6 -6 71 -83 145 -171 74 -88 136 -162 139 -165 4 -3 37 -41 76 -85
38 -44 86 -98 106 -120 20 -22 64 -71 99 -110 189 -209 327 -352 635 -660 187
-187 379 -376 426 -420 260 -241 433 -397 549 -496 41 -35 77 -66 80 -69 5 -5
190 -163 220 -187 8 -7 60 -49 115 -94 294 -242 598 -476 910 -701 55 -40 102
-75 105 -78 3 -3 12 -9 21 -15 10 -5 88 -60 175 -121 526 -368 1121 -735 1684
-1041 85 -46 162 -88 170 -93 31 -19 728 -368 810 -405 47 -21 123 -56 170
-77 135 -62 139 -64 265 -118 146 -63 181 -79 220 -95 61 -27 535 -215 541
-215 3 0 20 -6 37 -14 83 -38 704 -252 972 -335 230 -71 692 -201 805 -226 8
-2 80 -20 159 -40 80 -20 186 -45 235 -56 50 -11 98 -22 106 -24 121 -28 600
-123 715 -141 17 -3 66 -11 110 -19 88 -15 142 -24 195 -31 19 -2 60 -9 90
-14 30 -5 75 -12 100 -15 25 -3 56 -8 70 -10 14 -2 48 -7 75 -10 28 -3 64 -8
80 -10 17 -2 50 -6 75 -9 74 -9 222 -26 260 -31 19 -2 62 -7 95 -10 33 -3 80
-7 105 -10 108 -11 402 -34 522 -40 60 -4 253 -13 428 -20 273 -13 1014 -6
1290 10 36 2 115 7 175 10 61 3 130 8 155 10 25 2 79 6 120 10 174 13 198 15
250 20 30 2 75 7 100 10 25 3 70 7 100 10 30 3 89 10 130 15 41 5 100 12 130
15 30 3 66 7 80 10 28 4 175 24 230 31 19 3 60 9 90 14 30 5 75 12 100 15 50
7 430 71 470 80 14 3 40 8 59 11 40 7 44 8 141 27 41 9 86 18 100 21 14 3 36
7 50 10 38 8 122 26 148 31 13 2 31 6 40 9 9 3 28 7 42 10 39 6 307 71 500
120 669 171 1400 409 2093 681 108 43 197 82 197 87 0 4 -4 8 -8 8 -14 0 -231
148 -392 268 -329 245 -581 461 -825 706 l-140 141 50 6 c58 7 718 3 755 -5
14 -2 59 -7 100 -11 41 -3 91 -8 110 -10 19 -3 58 -7 85 -10 28 -3 61 -8 75
-10 14 -2 46 -7 72 -10 26 -3 96 -15 155 -26 59 -11 124 -23 143 -26 64 -9
434 -104 530 -135 338 -109 506 -176 795 -318 239 -117 466 -250 661 -387 113
-79 315 -235 389 -301 17 -15 51 -44 75 -66 132 -114 380 -369 507 -521 115
-137 286 -364 328 -433 6 -10 13 -19 16 -22 28 -25 359 -579 359 -602 0 -4
140 -8 311 -8 l311 0 -4 32 c-3 29 0 32 37 42 38 11 40 13 39 51 -1 60 -15
238 -19 255 -2 8 -7 47 -10 85 -3 39 -8 84 -10 100 -3 17 -7 48 -10 70 -20
145 -26 186 -35 237 -6 32 -12 68 -14 80 -4 24 -33 179 -40 213 -20 101 -39
187 -61 280 -15 61 -28 119 -31 130 -7 38 -102 390 -139 515 -186 632 -506
1514 -706 1948 -16 35 -29 65 -29 67 0 2 -22 51 -50 110 -27 59 -50 108 -50
110 0 3 -41 89 -92 192 -50 103 -92 190 -93 193 -3 12 -144 285 -228 440 -76
142 -268 480 -338 597 -39 65 -79 132 -89 148 -130 223 -507 792 -707 1068
-93 128 -415 560 -428 573 -6 7 -40 49 -76 94 -35 46 -80 102 -99 125 -19 23
-42 51 -50 61 -207 260 -678 830 -735 890 -6 6 -35 39 -65 74 -55 62 -66 75
-143 160 -261 289 -381 414 -722 755 -192 193 -404 400 -469 460 -66 61 -127
117 -136 125 -9 8 -58 53 -110 100 -52 47 -100 90 -106 95 -6 6 -39 35 -74 65
-35 30 -68 60 -74 65 -6 6 -45 39 -86 74 -41 34 -91 77 -111 94 -19 18 -51 44
-70 59 -19 14 -45 36 -59 48 -29 26 -395 320 -455 365 -465 355 -851 626
-1275 897 -211 134 -565 348 -576 348 -4 0 -15 6 -23 14 -9 8 -56 36 -106 64
-49 27 -106 58 -125 69 -159 90 -412 222 -669 349 -226 112 -289 142 -496 234
-71 31 -150 67 -175 78 -46 20 -215 91 -370 155 -75 31 -289 112 -465 177
-164 61 -594 203 -775 257 -284 84 -691 191 -910 239 -210 47 -245 54 -275 60
-16 2 -37 7 -45 9 -8 2 -31 7 -50 10 -19 3 -54 10 -78 16 -23 5 -59 12 -80 15
-20 3 -43 7 -51 10 -8 2 -37 7 -65 10 -28 3 -54 7 -57 9 -6 4 -245 45 -299 51
-19 2 -44 6 -55 8 -17 4 -67 11 -230 32 -16 2 -43 6 -60 8 -16 3 -57 8 -90 11
-33 3 -71 8 -85 10 -14 3 -50 7 -80 10 -30 3 -73 7 -95 10 -22 2 -67 7 -100
10 -33 4 -105 13 -160 21 -55 8 -116 17 -135 20 -96 12 -117 14 -135 18 -11 2
-51 7 -90 10 -38 4 -77 9 -85 11 -8 2 -44 6 -80 10 -36 3 -75 7 -85 9 -11 2
-56 7 -100 11 -44 4 -93 8 -110 10 -16 2 -64 7 -105 10 -41 3 -95 8 -120 10
-411 33 -589 39 -1140 40 -447 0 -694 -6 -878 -20 -26 -2 -87 -6 -137 -10
-132 -9 -193 -14 -260 -21 -33 -3 -76 -8 -95 -9 -76 -7 -167 -16 -205 -21 -22
-2 -58 -7 -80 -9 -22 -3 -56 -7 -75 -10 -19 -3 -53 -7 -75 -10 -38 -4 -102
-13 -155 -20 -14 -2 -45 -7 -70 -10 -25 -3 -70 -10 -100 -15 -56 -9 -100 -17
-155 -26 -125 -20 -477 -87 -625 -119 -210 -45 -580 -138 -795 -200 -88 -25
-164 -47 -170 -49 -61 -15 -521 -165 -665 -217 -818 -295 -1607 -669 -2340
-1109 -264 -158 -343 -210 -335 -218 639 -639 1073 -1164 1230 -1487 29 -60
56 -120 60 -133 l6 -22 -43 23 c-54 30 -256 144 -311 176 -272 157 -830 538
-1042 713 -11 9 -59 47 -106 86 -47 38 -96 78 -108 88 -293 239 -652 583 -964
922 -52 57 -258 301 -347 412 -19 23 -44 55 -56 69 -54 67 -253 345 -342 478
-114 170 -259 413 -356 593 -62 114 -216 426 -216 435 0 3 -11 29 -25 58 l-24
54 -482 0 -482 0 7 -71z m11761 -1390 c50 -3 137 -8 195 -11 126 -6 249 -14
310 -21 86 -8 215 -25 230 -29 8 -2 37 -7 64 -10 27 -3 51 -7 55 -9 3 -2 29
-6 56 -10 28 -3 61 -8 75 -11 14 -3 41 -8 60 -11 58 -9 439 -83 530 -103 47
-10 121 -26 165 -36 233 -49 832 -212 1145 -311 483 -154 1172 -404 1455 -529
17 -7 120 -51 230 -98 642 -272 1453 -678 2013 -1008 45 -27 87 -49 92 -49 6
0 10 -4 10 -10 0 -5 4 -10 9 -10 8 0 147 -81 334 -196 236 -143 647 -412 892
-582 148 -104 465 -331 475 -342 3 -3 35 -27 73 -55 106 -78 461 -355 518
-403 13 -11 71 -59 129 -107 102 -84 168 -140 220 -185 14 -12 47 -40 74 -63
27 -23 54 -46 60 -52 6 -5 31 -28 56 -49 39 -35 147 -131 236 -213 350 -317
791 -765 1089 -1103 61 -69 112 -127 115 -130 24 -24 204 -239 322 -385 890
-1104 1535 -2257 1939 -3468 82 -244 95 -298 68 -282 -5 3 -35 13 -66 21 -96
25 -376 95 -401 100 -13 3 -74 15 -135 29 -163 35 -346 67 -607 105 -80 12
-156 24 -170 26 -14 3 -54 9 -90 15 -36 5 -72 11 -80 14 -8 2 -42 6 -75 10
-59 6 -78 8 -165 19 -25 4 -74 9 -110 12 -36 3 -81 7 -100 9 -268 28 -965 27
-1230 0 -25 -3 -65 -7 -90 -10 -88 -9 -146 -16 -215 -26 -38 -6 -86 -12 -105
-15 -19 -2 -58 -9 -86 -14 -28 -6 -64 -13 -80 -16 -16 -2 -92 -18 -169 -35
-77 -17 -147 -33 -155 -34 -8 -2 -85 -24 -170 -49 -332 -96 -628 -220 -900
-374 -140 -79 -340 -209 -340 -221 0 -5 11 -16 24 -24 13 -9 29 -22 37 -29 8
-7 63 -54 124 -103 60 -50 117 -97 125 -105 9 -8 36 -32 60 -52 190 -156 446
-400 611 -581 45 -49 47 -52 104 -127 132 -173 133 -161 -17 -190 -68 -13
-132 -25 -143 -27 -11 -2 -65 -12 -120 -23 -55 -10 -120 -21 -145 -25 -66 -9
-103 -15 -120 -20 -8 -2 -37 -6 -65 -10 -27 -3 -75 -10 -105 -15 -30 -5 -77
-11 -105 -14 -27 -3 -60 -8 -72 -10 -12 -3 -53 -8 -90 -11 -37 -4 -75 -9 -83
-10 -8 -1 -44 -6 -80 -9 -36 -4 -87 -9 -115 -13 -56 -6 -72 -7 -200 -17 -49
-4 -106 -9 -125 -11 -19 -3 -82 -7 -140 -11 -58 -3 -125 -7 -150 -9 -341 -26
-1243 -26 -1700 0 -143 8 -340 21 -440 30 -251 22 -349 31 -420 40 -19 3 -60
7 -90 10 -30 3 -66 7 -80 10 -14 2 -52 7 -85 10 -33 3 -71 8 -85 10 -14 2 -47
7 -75 10 -27 3 -97 12 -155 21 -58 8 -121 17 -140 20 -19 3 -60 9 -90 14 -30
5 -73 12 -95 15 -122 18 -559 99 -759 141 -11 2 -65 13 -120 24 -116 24 -525
120 -636 149 -41 11 -86 22 -100 25 -70 15 -641 174 -700 196 -14 5 -72 23
-130 40 -127 38 -602 196 -720 240 -47 17 -103 37 -125 44 -52 17 -376 141
-541 206 -132 53 -153 62 -236 99 -26 11 -50 21 -53 21 -2 0 -28 11 -57 24
-29 13 -116 51 -193 84 -77 33 -180 79 -230 102 -49 23 -144 67 -210 97 -111
51 -726 360 -823 414 l-43 23 26 13 c64 34 750 269 871 298 10 3 109 30 219
60 110 31 216 58 235 61 19 3 38 8 41 10 7 4 121 29 179 39 17 3 61 12 98 19
78 17 174 29 183 24 3 -1 13 3 21 9 13 11 23 4 64 -45 26 -31 84 -88 127 -127
43 -38 84 -75 91 -82 34 -31 222 -146 311 -191 101 -50 246 -108 365 -144 36
-11 66 -21 68 -23 5 -5 -34 -76 -61 -113 -14 -18 -74 -83 -133 -145 -112 -116
-152 -160 -239 -262 -27 -32 -56 -64 -62 -71 -7 -7 -13 -15 -13 -18 0 -9 186
3 315 20 96 13 284 67 455 132 194 73 351 143 678 304 100 49 187 86 192 83
22 -13 620 -7 875 10 28 2 109 6 180 10 72 3 141 8 155 10 14 2 75 6 135 10
61 3 121 8 135 10 14 2 68 7 120 10 52 4 104 9 115 11 23 5 107 13 180 19 74
5 438 6 530 0 159 -10 297 -20 385 -30 25 -3 68 -7 95 -10 28 -3 82 -10 120
-15 39 -5 90 -12 115 -15 25 -3 56 -8 70 -10 14 -2 43 -7 65 -10 49 -7 219
-34 260 -41 17 -3 54 -10 83 -15 28 -5 78 -14 110 -20 31 -6 66 -12 77 -14
235 -36 484 -109 643 -189 91 -46 256 -157 245 -165 -4 -4 -33 -23 -63 -42
-30 -20 -93 -61 -140 -91 -130 -84 -276 -179 -367 -237 -46 -29 -83 -55 -83
-58 0 -3 44 -2 98 2 53 4 129 8 167 10 76 5 155 12 198 20 15 3 37 7 50 9 50
9 147 38 222 66 88 33 104 37 63 14 l-28 -15 36 -72 c20 -40 38 -73 39 -75 3
-3 169 61 230 88 115 50 158 71 269 126 503 251 851 565 1203 1089 l40 60 -53
59 -54 59 -84 -41 c-152 -76 -324 -125 -516 -147 -108 -13 -111 -11 -53 33 34
25 48 42 44 52 -10 25 -73 130 -77 130 -3 0 -20 -7 -39 -14 -34 -15 -210 -60
-270 -70 l-30 -5 27 20 c14 11 37 28 49 38 l23 18 -44 67 c-37 55 -48 66 -65
61 -64 -21 -119 -34 -162 -39 -156 -19 -191 -21 -199 -13 -3 2 29 58 70 123
41 65 71 124 68 130 -4 7 -27 33 -51 59 -24 25 -42 47 -40 49 2 2 38 11 79 20
102 24 245 78 365 138 97 49 101 49 164 43 36 -4 68 -8 71 -10 3 -2 35 -7 70
-10 36 -4 67 -8 70 -10 3 -2 32 -6 65 -9 67 -8 75 -11 53 -29 -69 -56 -182
-137 -246 -174 -77 -46 -88 -52 -195 -113 -32 -18 -56 -35 -53 -37 2 -3 33 -7
68 -9 35 -3 77 -7 93 -10 52 -10 388 -13 435 -4 25 4 64 11 87 14 106 14 266
66 363 118 l55 29 140 -44 c312 -100 430 -139 435 -143 15 -16 -422 -376 -485
-400 -8 -4 -15 -11 -15 -16 0 -10 119 -5 379 17 189 16 368 53 501 102 217 81
341 162 682 445 l187 155 -4 99 c-1 54 -10 128 -20 164 -38 146 -121 338 -217
504 -36 61 -46 70 -97 92 -31 14 -65 29 -76 33 -11 5 -36 16 -55 24 -19 8 -91
38 -160 67 -69 28 -152 63 -185 77 -33 14 -73 31 -90 38 -16 7 -183 77 -370
155 -187 78 -353 148 -370 155 -16 7 -70 30 -120 50 -49 20 -103 43 -120 50
-27 12 -292 95 -815 256 -107 33 -220 68 -250 79 -53 17 -194 61 -215 66 -5 1
-48 14 -95 29 -47 15 -89 28 -95 30 -5 1 -17 5 -25 8 -8 3 -39 13 -68 22 -29
9 -203 90 -385 180 -369 180 -450 219 -617 295 -63 29 -153 70 -198 91 -46 22
-86 39 -88 39 -2 0 -37 15 -77 34 -39 18 -81 37 -91 40 -18 6 -16 9 13 38 57
55 75 103 75 193 0 171 -108 368 -379 697 -101 122 -482 515 -600 619 -28 24
-68 59 -89 78 -30 27 -62 40 -145 63 -58 15 -118 30 -133 33 -15 3 -39 10 -53
15 -14 5 -37 12 -50 14 -121 22 -629 182 -750 236 -11 5 -62 28 -114 50 -685
297 -1302 879 -2217 2090 -76 101 -146 194 -154 207 -8 12 -94 131 -191 265
-96 134 -191 265 -210 292 -19 27 -60 85 -91 130 -31 45 -82 117 -112 161 -30
44 -72 105 -94 135 -44 63 -219 321 -311 457 -34 51 -65 94 -69 96 -4 3 -37
-15 -75 -38 l-67 -42 171 -284 c95 -156 232 -383 305 -504 141 -233 223 -368
239 -397 6 -10 64 -106 130 -214 66 -108 122 -202 124 -207 2 -6 -32 18 -75
54 -43 35 -85 68 -92 74 -7 5 -18 15 -25 20 -37 31 -342 271 -387 305 -19 14
-56 43 -84 65 -52 40 -562 423 -605 453 -12 9 -35 26 -49 37 -42 32 -324 236
-387 280 -31 22 -62 45 -68 50 -7 6 -43 33 -82 60 -38 27 -71 53 -73 57 -2 4
-8 8 -13 8 -5 0 -64 40 -131 88 -194 139 -165 131 -226 62 -38 -42 -51 -64
-45 -75 20 -35 292 -314 869 -890 341 -341 651 -654 690 -695 115 -125 209
-231 274 -310 34 -41 72 -86 84 -100 75 -88 261 -340 250 -340 -5 0 -84 59
-94 71 -14 16 -491 360 -595 429 -34 22 -263 179 -315 215 -54 38 -500 339
-765 517 -104 70 -194 131 -200 136 -5 4 -122 83 -260 176 -251 168 -540 363
-884 595 -143 97 -185 121 -191 110 -5 -8 -26 -38 -47 -68 l-39 -54 65 -55
c113 -94 232 -217 491 -506 19 -22 61 -67 92 -101 31 -33 66 -71 77 -84 11
-12 50 -55 88 -95 70 -74 276 -294 333 -356 18 -19 85 -91 150 -160 64 -69
132 -141 150 -160 18 -19 80 -86 139 -149 58 -63 111 -119 116 -125 52 -55
268 -294 304 -334 9 -11 46 -52 82 -93 37 -41 122 -139 190 -219 119 -140 123
-155 19 -70 -25 20 -61 47 -80 60 -19 13 -37 27 -40 30 -3 4 -32 26 -65 51
-33 24 -66 49 -75 56 -66 52 -226 175 -330 253 -69 52 -127 97 -130 100 -3 3
-30 24 -60 46 -51 38 -116 88 -385 294 -274 210 -372 284 -640 484 -159 120
-301 226 -315 236 -168 126 -758 550 -984 707 l-108 75 -47 -53 c-25 -28 -49
-57 -53 -63 -3 -7 16 -36 44 -66 27 -30 91 -100 142 -154 106 -115 86 -93 211
-232 82 -90 163 -181 240 -268 6 -6 43 -49 83 -96 41 -47 84 -96 96 -110 12
-14 60 -70 105 -125 45 -55 96 -116 113 -135 62 -73 329 -433 401 -542 137
-206 218 -387 198 -441 -12 -30 -24 -35 -81 -31 -87 6 -124 14 -244 55 -254
86 -512 214 -986 489 -173 100 -336 193 -362 206 -26 13 -116 67 -200 120 -84
53 -162 101 -173 108 -11 6 -22 14 -25 17 -3 3 -16 12 -30 19 -31 16 -509 329
-520 340 -3 3 -61 43 -130 90 -163 110 -424 295 -476 337 l-42 34 -43 -52
c-24 -28 -49 -57 -56 -64 -9 -9 8 -31 75 -95 314 -299 604 -582 1002 -980 452
-452 559 -562 780 -800 63 -68 124 -133 135 -145 11 -12 67 -75 125 -141 58
-65 107 -121 110 -124 5 -4 95 -113 138 -165 161 -199 302 -419 302 -474 0
-18 -5 -19 -57 -15 -123 10 -389 109 -785 293 -209 96 -343 159 -483 226 -60
29 -150 69 -200 90 -49 21 -96 43 -103 48 -16 13 -18 10 -62 -70 l-37 -67 140
-99 c139 -97 371 -272 406 -305 10 -9 29 -26 42 -36 120 -95 344 -314 439
-431 126 -155 230 -338 256 -450 14 -63 22 -111 18 -117 -2 -4 -30 5 -62 19
-105 46 -373 133 -462 149 -14 3 -52 11 -85 19 -59 14 -164 34 -218 41 -15 2
-44 5 -65 8 -40 6 -107 14 -162 21 -152 19 -557 26 -563 11 -2 -6 -5 -40 -6
-76 -2 -35 -5 -68 -7 -72 -3 -5 -2 -8 3 -9 51 -4 256 -57 336 -86 109 -39 221
-97 326 -168 94 -63 276 -213 268 -221 -2 -2 -41 10 -88 27 -46 17 -91 32 -99
34 -8 2 -42 13 -75 24 -120 39 -397 109 -575 145 -102 21 -273 49 -360 61 -25
3 -56 8 -70 10 -14 2 -52 7 -85 10 -33 3 -82 8 -110 10 -115 11 -267 19 -326
16 -11 -1 -19 -15 -24 -43 -4 -24 -9 -47 -10 -53 -17 -64 -24 -56 102 -120
252 -128 476 -302 629 -486 35 -43 104 -138 104 -144 0 -5 -19 5 -120 64 -47
27 -395 201 -403 201 -4 0 -30 11 -59 24 -89 41 -357 135 -428 151 -8 2 -53
13 -100 24 -84 20 -108 25 -185 36 -23 3 -52 8 -65 11 -34 7 -476 18 -470 11
5 -5 218 -170 281 -217 147 -110 369 -323 369 -354 0 -3 -42 15 -92 41 -51 26
-95 48 -98 48 -3 1 -25 10 -50 22 -53 25 -241 94 -323 120 -57 17 -62 22 -159
143 -55 69 -105 132 -113 141 -42 53 -267 356 -351 474 -233 326 -509 755
-694 1080 -164 287 -233 415 -373 695 -137 273 -289 601 -338 728 -7 19 9 11
83 -41 151 -104 308 -211 334 -227 13 -8 77 -49 142 -91 139 -91 474 -298 517
-321 17 -8 70 -39 118 -67 284 -166 646 -344 942 -465 77 -32 149 -61 160 -66
94 -39 428 -150 451 -150 8 0 22 -4 32 -10 14 -7 148 -43 253 -66 10 -2 29 -6
42 -9 58 -14 315 -56 375 -61 37 -3 81 -7 97 -10 17 -2 107 -7 200 -10 l171
-6 -2 128 c-2 138 -12 339 -19 364 -2 8 -7 44 -10 79 -3 35 -8 73 -10 85 -3
11 -7 37 -10 56 -2 19 -8 60 -14 90 -7 30 -14 67 -16 83 -18 101 -129 481
-164 562 -5 11 -15 36 -22 55 -97 265 -294 657 -507 1010 -90 149 -326 513
-360 554 -14 17 -19 33 -14 38 9 9 529 188 692 238 351 107 490 147 680 200
232 63 366 100 390 105 8 2 44 11 80 20 88 22 76 19 248 59 162 38 363 82 415
91 18 3 48 10 67 15 19 5 51 12 70 15 19 3 94 17 165 31 105 20 354 63 520 90
17 2 41 6 55 9 14 2 45 7 70 10 25 3 56 8 70 11 14 2 43 6 65 9 46 5 105 12
155 20 19 2 55 7 80 10 25 3 61 8 80 10 19 3 55 7 80 9 25 3 68 7 95 11 70 8
131 14 195 20 30 2 82 7 115 10 82 7 164 13 270 20 184 12 243 15 374 20 74 3
136 7 137 8 5 5 844 -1 939 -7z m3886 -5365 c223 -133 626 -413 723 -502 28
-26 -112 -89 -265 -120 -146 -29 -483 -31 -614 -4 -11 3 -36 7 -55 9 -87 12
-278 89 -485 194 -227 116 -430 253 -571 386 l-69 65 50 1 c28 1 64 3 80 5 28
3 111 8 330 21 50 3 115 7 145 9 30 2 136 7 235 10 99 4 181 8 182 9 1 0 44
-1 95 -4 l94 -5 125 -74z m-1196 -2861 c22 -5 63 -12 90 -15 28 -3 61 -8 75
-10 14 -3 57 -7 95 -10 201 -16 205 -17 225 -49 36 -58 285 -330 367 -400 22
-18 23 -18 86 32 55 44 63 55 60 79 -4 26 16 97 64 228 10 28 18 51 18 52 1 4
255 15 255 11 0 -2 -11 -28 -25 -56 -14 -29 -25 -55 -25 -59 0 -3 -12 -36 -27
-72 -24 -58 -27 -80 -27 -183 -1 -111 -2 -117 -21 -117 -11 0 -74 -2 -140 -5
-159 -7 -547 -17 -815 -21 -243 -4 -295 4 -396 60 -113 63 -233 193 -318 347
l-37 68 78 -36 c79 -36 326 -124 347 -124 6 0 28 29 49 65 l38 65 -41 74 c-22
42 -40 78 -40 81 0 7 19 6 65 -5z m2035 -66 c77 -148 142 -266 198 -357 65
-105 68 -107 97 -101 17 3 35 10 40 14 6 4 27 13 48 19 34 12 37 15 37 52 0
49 -2 37 20 116 10 38 35 107 55 155 36 86 37 87 68 83 98 -13 181 -26 185
-29 5 -6 -65 -142 -115 -223 -45 -74 -72 -144 -67 -175 1 -10 -1 -20 -5 -22
-33 -21 -735 -42 -858 -26 -79 10 -173 83 -211 163 -21 44 -70 239 -74 295
l-3 34 70 4 c39 2 104 6 145 8 41 3 127 8 190 12 63 3 116 7 117 9 2 1 13 1
25 0 14 -1 29 -12 38 -31z m1475 -9 c28 -3 73 -10 100 -15 28 -5 66 -11 85
-14 76 -10 136 -19 155 -22 11 -2 76 -14 145 -25 69 -12 134 -23 145 -25 11
-2 38 -6 60 -10 22 -3 44 -9 48 -13 4 -4 -19 -46 -52 -92 -77 -108 -85 -118
-151 -203 -31 -39 -68 -87 -83 -107 l-27 -35 177 37 c98 21 179 37 180 35 8
-8 -204 -88 -307 -117 -25 -7 -49 -14 -55 -15 -24 -7 -93 -23 -120 -28 -16 -3
-39 -8 -50 -10 -118 -23 -261 -27 -340 -9 -67 15 -195 71 -195 85 0 10 189
579 197 591 2 4 12 6 21 3 10 -3 40 -8 67 -11z m-569 -58 c3 -3 185 -408 201
-447 12 -31 6 -27 -60 41 -86 88 -135 160 -189 279 -21 47 -45 98 -53 114
l-15 28 56 -6 c32 -3 58 -7 60 -9z"/>
</g>
</svg>
